<svg id="Calque_1" data-name="Calque 1" xmlns="http://www.w3.org/2000/svg" viewBox="0 0 45 41"><defs><style>.cls-1{fill:#3f63c8;}</style></defs><path class="cls-1" d="M26.23,34.08l-3.56,6.23-.3.1-2.63-4.52A44.56,44.56,0,0,1,26.23,34.08Z"/><path class="cls-1" d="M33.24,21.81,29.9,27.66a58.84,58.84,0,0,0-9.06,2.79Q19,31.2,17.48,32L14.9,27.5c1.13-.57,2.38-1.15,3.76-1.72A63.17,63.17,0,0,1,32.1,22Z"/><path class="cls-1" d="M40,10l-2.89,5a29.39,29.39,0,0,0-11.41,2.66c-5.09,2.26-9.53,4.12-13.27,5.57L9.81,18.77C13.62,17.32,18.23,15.4,23.6,13A34.17,34.17,0,0,1,40,10Z"/><path class="cls-1" d="M45,1.25,42.36,5.89c-7.32-1.55-14-.76-19.94,2.38S11.76,13.73,7.9,15.45L5.3,11C9.1,9.31,14,6.89,20,3.73a32.25,32.25,0,0,1,4.35-1.91A33.45,33.45,0,0,1,38.28.12,44.7,44.7,0,0,1,45,1.25Z"/><path class="cls-1" d="M17.1,1.82c-.47.26-.94.53-1.42.78A40,40,0,0,1,5.17,6.14c-.83.17-1.64.3-2.43.42L0,1.82Z"/></svg>